<svg width="930" height="890" viewBox="0 0 930 890" fill="none" xmlns="http://www.w3.org/2000/svg">
<path d="M868.415 562.836H563.58V394.021H868.415V562.836ZM565.44 561.056H866.555V395.801H565.44V561.056Z" fill="#E0E0E0"/>
<path d="M805.529 484.035H604.407V489.678H805.529V484.035Z" fill="#F0F0F0"/>
<path d="M819.386 505.075H604.407V511.234H819.386V505.075Z" fill="#F0F0F0"/>
<path d="M819.386 526.364H604.407V532.522H819.386V526.364Z" fill="#F0F0F0"/>
<path d="M674.696 453.473H604.407V468.122H674.696V453.473Z" fill="#F0F0F0"/>
<path d="M867.485 394.911H564.566V421.789H867.485V394.911Z" fill="#E0E0E0"/>
<path d="M844.179 417.766C843.789 417.41 847.695 412.907 852.884 407.709C858.074 402.511 862.631 398.578 863.003 398.916C863.375 399.254 859.487 403.775 854.298 408.991C849.108 414.206 844.551 418.122 844.179 417.766Z" fill="white"/>
<path d="M863.04 417.766C862.668 418.122 858.13 414.206 852.922 408.99C847.714 403.775 843.826 399.272 844.217 398.916C844.607 398.56 849.127 402.476 854.335 407.709C859.543 412.942 863.393 417.41 863.04 417.766Z" fill="white"/>
<path d="M493.309 60.6089H190.39V227.662H493.309V60.6089Z" fill="#E6E6E6"/>
<path d="M431.371 149.751H230.249V155.394H431.371V149.751Z" fill="#F0F0F0"/>
<path d="M445.228 170.791H230.249V176.95H445.228V170.791Z" fill="#F0F0F0"/>
<path d="M445.228 192.08H230.249V198.238H445.228V192.08Z" fill="#F0F0F0"/>
<path d="M300.539 119.189H230.249V133.838H300.539V119.189Z" fill="#F0F0F0"/>
<path d="M493.309 60.6089H190.39V87.4869H493.309V60.6089Z" fill="#E0E0E0"/>
<path d="M468.98 83.3394C468.59 83.0012 472.496 78.48 477.685 73.2824C482.875 68.0848 487.432 64.151 487.804 64.507C488.176 64.863 484.288 69.3664 479.099 74.564C473.909 79.7616 469.352 83.6598 468.98 83.3394Z" fill="white"/>
<path d="M487.804 83.3395C487.432 83.6955 482.893 79.7795 477.685 74.5641C472.477 69.3487 468.59 64.8631 468.98 64.5071C469.371 64.1511 473.891 68.0671 479.099 73.2825C484.307 78.4979 488.194 83.0013 487.804 83.3395Z" fill="white"/>
<path d="M378.584 370.934H73.8048V202.101H378.584V370.934ZM75.6648 369.154H376.724V203.881H75.6648V369.154Z" fill="#E0E0E0"/>
<path d="M315.716 292.134H114.595V297.776H315.716V292.134Z" fill="#F0F0F0"/>
<path d="M329.573 313.173H114.595V319.332H329.573V313.173Z" fill="#F0F0F0"/>
<path d="M329.573 334.462H114.595V340.621H329.573V334.462Z" fill="#F0F0F0"/>
<path d="M184.884 261.571H114.595V276.22H184.884V261.571Z" fill="#F0F0F0"/>
<path d="M377.654 202.991H74.7348V229.869H377.654V202.991Z" fill="#E0E0E0"/>
<path d="M730.329 409.614H372.651V716.058H730.329V409.614Z" fill="#E6E6E6"/>
<path d="M390.637 313.084H110.447V591.672H390.637V313.084Z" fill="#F0F0F0"/>
<path d="M390.637 313.084H110.447V343.433H390.637V313.084Z" fill="#E0E0E0"/>
<path d="M133.585 327.947C133.534 329.048 133.147 330.11 132.471 331.001C131.794 331.893 130.86 332.575 129.782 332.963C128.705 333.351 127.532 333.427 126.41 333.183C125.287 332.938 124.264 332.384 123.468 331.588C122.672 330.793 122.138 329.791 121.931 328.707C121.725 327.623 121.855 326.505 122.307 325.492C122.758 324.479 123.511 323.614 124.471 323.007C125.431 322.399 126.556 322.074 127.708 322.073C129.299 322.111 130.811 322.749 131.912 323.85C133.014 324.951 133.615 326.424 133.585 327.947Z" fill="white"/>
<path d="M157.449 327.947C157.402 329.053 157.015 330.121 156.339 331.018C155.662 331.915 154.724 332.603 153.642 332.994C152.561 333.385 151.382 333.463 150.255 333.219C149.127 332.974 148.099 332.417 147.299 331.618C146.499 330.819 145.963 329.812 145.756 328.723C145.55 327.634 145.683 326.511 146.138 325.494C146.593 324.477 147.351 323.61 148.317 323.002C149.283 322.393 150.415 322.07 151.571 322.073C153.163 322.11 154.675 322.749 155.776 323.85C156.878 324.95 157.479 326.423 157.449 327.947Z" fill="white"/>
<path d="M181.313 327.947C181.265 329.053 180.879 330.121 180.202 331.018C179.525 331.915 178.588 332.603 177.506 332.994C176.424 333.385 175.246 333.463 174.118 333.219C172.99 332.974 171.963 332.417 171.163 331.618C170.363 330.819 169.827 329.812 169.62 328.723C169.414 327.634 169.546 326.511 170.002 325.494C170.457 324.477 171.215 323.61 172.181 323.002C173.147 322.393 174.279 322.07 175.435 322.073C177.027 322.11 178.539 322.749 179.64 323.85C180.741 324.95 181.343 326.423 181.313 327.947Z" fill="white"/>
<path d="M828.407 121.538H470.729V462.693H828.407V121.538Z" fill="#F0F0F0"/>
<path d="M828.407 121.538H470.729V161.499H828.407V121.538Z" fill="#E0E0E0"/>
<path d="M501.196 141.118C501.13 142.571 500.62 143.973 499.729 145.151C498.838 146.329 497.605 147.23 496.183 147.743C494.761 148.256 493.213 148.358 491.731 148.037C490.25 147.715 488.899 146.984 487.848 145.934C486.796 144.885 486.09 143.563 485.817 142.132C485.544 140.702 485.716 139.226 486.311 137.888C486.907 136.551 487.9 135.41 489.167 134.607C490.434 133.805 491.92 133.377 493.439 133.375C495.539 133.422 497.535 134.263 498.988 135.714C500.442 137.165 501.236 139.108 501.196 141.118Z" fill="white"/>
<path d="M530.342 135.885C531.373 136.957 532.052 138.295 532.294 139.733C532.536 141.171 532.33 142.646 531.703 143.973C531.075 145.3 530.053 146.422 528.764 147.197C527.476 147.972 525.977 148.368 524.455 148.334C522.933 148.3 521.456 147.838 520.206 147.006C518.957 146.174 517.991 145.008 517.428 143.654C516.866 142.301 516.733 140.819 517.044 139.393C517.356 137.967 518.1 136.66 519.182 135.636C520.698 134.255 522.724 133.506 524.816 133.553C526.908 133.6 528.895 134.438 530.342 135.885Z" fill="white"/>
<path d="M564.026 141.118C563.961 142.571 563.451 143.973 562.56 145.151C561.668 146.329 560.435 147.23 559.014 147.743C557.592 148.256 556.044 148.358 554.562 148.037C553.08 147.715 551.73 146.984 550.678 145.934C549.627 144.885 548.921 143.563 548.647 142.132C548.374 140.702 548.546 139.226 549.142 137.888C549.737 136.551 550.731 135.41 551.998 134.607C553.265 133.805 554.751 133.377 556.27 133.375C558.37 133.422 560.365 134.263 561.819 135.714C563.273 137.165 564.066 139.108 564.026 141.118Z" fill="white"/>
<path d="M751.142 806.571C751.142 806.821 621.984 807.034 462.712 807.034C303.44 807.034 174.226 806.821 174.226 806.571C174.226 806.322 303.366 806.109 462.712 806.109C622.058 806.109 751.142 806.34 751.142 806.571Z" fill="#263238"/>
<path d="M625.295 588.664C596.558 569.458 590.048 533.804 591.182 501.746C591.368 496.406 590.755 490.746 593.414 486.065C596.074 481.383 602.287 478.161 607.29 480.404C611.438 482.273 613.242 486.901 615.567 490.728C618.669 495.825 623.215 499.979 628.68 502.708C632.233 504.488 636.641 505.556 640.156 503.704C644.992 501.159 645.55 494.804 645.513 489.464C645.513 479.532 645.451 469.611 645.327 459.703C644.993 454.382 645.558 449.045 647.001 443.896C648.731 438.841 652.581 434.16 657.845 432.736C663.109 431.312 669.674 434.249 670.865 439.446C671.07 441.648 671.126 443.86 671.032 446.068C671.181 448.293 672.26 450.732 674.436 451.408C676.612 452.084 678.882 450.536 680.556 448.969C686.284 443.629 690.19 436.67 693.817 429.799C697.444 422.928 700.997 415.861 706.205 410.005C711.413 404.149 718.611 399.503 726.665 399.058C734.719 398.613 743.107 403.348 745.116 410.824C747.125 418.3 742.568 425.936 737.676 432.006C730.294 441.016 721.593 448.959 711.841 455.591C709.937 456.586 708.418 458.139 707.507 460.023C706.298 463.583 709.813 467.143 713.477 468.265C717.625 469.582 722.126 469.172 726.497 469.671C730.868 470.169 735.518 471.985 737.174 475.901C739.443 481.348 734.681 487.044 730.013 490.782C720.639 498.258 709.994 504.14 698.542 508.172C694.45 509.596 690.153 510.86 686.842 513.601C683.531 516.342 681.56 521.131 683.55 524.886C685.54 528.642 690.655 529.835 694.952 529.069C699.248 528.304 703.061 526.097 707.153 524.619C714.798 521.86 724.656 522.359 729.473 528.678C730.966 530.855 731.911 533.333 732.233 535.918C732.556 538.503 732.248 541.124 731.333 543.576C729.472 548.456 726.607 552.929 722.908 556.731C710.725 570.66 694.897 581.243 677.04 587.4C659.314 593.274 642.891 594.876 625.276 588.699" fill="#5B36C2"/>
<path d="M736.932 403.455C736.932 403.455 736.765 403.633 736.393 403.953L734.737 405.359C733.287 406.605 731.148 408.421 728.451 410.824C720.804 417.619 713.703 424.955 707.209 432.771C703.062 437.702 698.765 443.291 694.189 449.361C689.614 455.431 684.889 461.981 680.202 468.941C675.205 476.28 670.629 483.874 666.494 491.689C664.336 495.766 662.439 500.02 660.486 504.363L654.72 517.624C647.12 534.328 640.5 551.424 634.893 568.835C630.376 583.079 627.262 597.698 625.593 612.498C624.511 622.486 624.337 632.545 625.072 642.562C625.369 646.122 625.648 648.846 625.909 650.697C626.02 651.587 626.095 652.299 626.169 652.815V653.545C626.089 653.313 626.033 653.075 626.002 652.833C625.909 652.317 625.797 651.622 625.648 650.732C625.314 648.952 624.96 646.14 624.625 642.58C623.728 632.544 623.79 622.452 624.811 612.427C626.377 597.563 629.423 582.877 633.907 568.568C639.467 551.109 646.069 533.969 653.679 517.232L659.593 504.025C661.546 499.699 663.462 495.41 665.638 491.316C669.802 483.477 674.416 475.865 679.458 468.514C684.22 461.394 689.019 454.95 693.538 448.934C698.058 442.917 702.429 437.293 706.558 432.38C713.118 424.584 720.314 417.299 728.079 410.593C730.831 408.225 733.026 406.445 734.514 405.253L736.244 403.918C736.456 403.741 736.687 403.586 736.932 403.455Z" fill="black"/>
<path d="M665.88 491.28C665.618 490.547 665.437 489.789 665.341 489.019C665.043 487.542 664.708 485.459 664.318 482.754C663.518 477.414 662.699 470.098 661.825 461.999C660.951 453.9 659.965 446.566 659.147 441.28C658.719 438.645 658.347 436.527 658.087 435.05C657.883 434.294 657.777 433.517 657.77 432.736C658.091 433.449 658.322 434.196 658.459 434.961C658.868 436.42 659.333 438.521 659.854 441.173C660.914 446.513 661.955 453.775 662.83 461.892C663.704 470.009 664.448 477.129 665.024 482.665C665.303 485.157 665.545 487.275 665.731 488.966C665.876 489.729 665.926 490.506 665.88 491.28Z" fill="black"/>
<path d="M737.453 478.499C736.548 478.688 735.626 478.795 734.7 478.82C732.84 478.98 730.199 479.194 726.925 479.55C720.378 480.226 711.376 481.472 701.499 483.252C691.622 485.032 682.75 487.043 676.37 488.592C673.19 489.375 670.623 490.087 668.93 490.568C668.027 490.875 667.092 491.09 666.14 491.209C667 490.795 667.896 490.455 668.819 490.194C670.567 489.607 673.097 488.788 676.259 487.916C682.601 486.136 691.474 484.017 701.387 482.202C709.785 480.665 718.259 479.536 726.776 478.82C730.069 478.553 732.728 478.446 734.588 478.41C735.544 478.348 736.504 478.378 737.453 478.499Z" fill="black"/>
<path d="M634.818 567.322C634.62 567.064 634.457 566.783 634.335 566.485L633.107 564.011C632.047 561.857 630.615 558.671 628.903 554.773C625.444 546.941 621.036 535.976 616.348 523.801C611.661 511.625 607.346 500.661 604.072 492.74C602.473 488.895 601.152 485.744 600.166 483.395L599.125 480.849C598.98 480.556 598.88 480.244 598.827 479.924C599.025 480.181 599.188 480.462 599.311 480.76L600.538 483.234C601.58 485.388 603.031 488.574 604.742 492.473C608.202 500.305 612.61 511.269 617.297 523.445C621.984 535.62 626.299 546.585 629.573 554.506C631.173 558.35 632.493 561.501 633.46 563.851C633.888 564.865 634.242 565.631 634.521 566.396C634.665 566.69 634.765 567.001 634.818 567.322Z" fill="#263238"/>
<path d="M729.827 538.005C729.529 538.169 729.21 538.294 728.878 538.379L726.126 539.269L715.951 542.419C707.358 545.089 695.491 548.899 682.471 553.099C669.451 557.3 657.529 561.038 648.88 563.53C644.564 564.794 641.049 565.755 638.613 566.396L635.804 567.09C635.477 567.189 635.141 567.255 634.8 567.286C635.097 567.122 635.416 566.997 635.748 566.912L638.501 566.022L648.675 562.872C657.268 560.202 669.135 556.392 682.155 552.192C695.175 547.991 707.079 544.253 715.728 541.761C720.062 540.497 723.559 539.536 726.014 538.895L728.823 538.201C729.149 538.102 729.486 538.036 729.827 538.005Z" fill="black"/>
<path d="M691.064 106.23L681.485 109.506L677.375 97.5262C669.823 75.4364 645.755 63.7062 623.639 71.1644C601.524 78.6226 589.75 102.848 597.302 124.938L601.412 136.918L591.796 140.211C588.129 141.572 585.152 144.233 583.482 147.641C581.812 151.048 581.579 154.941 582.831 158.509L609.485 236.455C610.038 238.222 610.957 239.863 612.186 241.283C613.415 242.703 614.931 243.872 616.641 244.721C618.352 245.569 620.224 246.08 622.145 246.222C624.066 246.365 625.997 246.137 627.824 245.551L727.093 211.571C730.808 210.212 733.828 207.527 735.517 204.082C737.206 200.636 737.434 196.697 736.151 193.094L709.478 115.148C708.911 113.387 707.978 111.753 706.736 110.344C705.494 108.935 703.969 107.78 702.25 106.948C700.531 106.115 698.655 105.623 696.733 105.5C694.812 105.376 692.884 105.625 691.064 106.23ZM615.399 118.69C613.363 112.947 613.729 106.672 616.419 101.18C619.11 95.6888 623.917 91.4068 629.833 89.2314C632.754 88.2749 635.847 87.8913 638.927 88.1036C642.006 88.3158 645.01 89.1196 647.758 90.4668C650.506 91.8141 652.942 93.6773 654.921 95.9452C656.9 98.2132 658.382 100.839 659.277 103.667L663.369 115.647L619.492 130.67L615.399 118.69ZM671.2 187.861L678.007 207.762C678.132 208.161 678.092 208.59 677.894 208.962C677.697 209.333 677.358 209.617 676.947 209.755L667.405 213.013C667.025 213.113 666.62 213.07 666.273 212.89C665.926 212.711 665.665 212.411 665.545 212.051L658.682 192.24C654.897 192.043 651.266 190.744 648.274 188.517C645.283 186.29 643.073 183.242 641.942 179.78C640.324 175.204 640.619 170.206 642.765 165.833C644.911 161.46 648.742 158.051 653.455 156.32C655.782 155.559 658.246 155.254 660.698 155.423C663.151 155.593 665.543 156.233 667.732 157.306C669.921 158.379 671.861 159.863 673.438 161.669C675.015 163.475 676.195 165.566 676.91 167.818C678.106 171.335 678.205 175.109 677.194 178.679C676.184 182.248 674.107 185.458 671.218 187.915L671.2 187.861Z" fill="#5B36C2"/>
<path d="M681.057 109.292C681.057 109.541 663.294 115.931 641.198 123.532C619.101 131.133 601.077 137.238 600.984 137.06C600.891 136.882 618.747 130.438 640.863 122.82C662.978 115.202 680.964 109.061 681.057 109.292Z" fill="#263238"/>
<path d="M702.15 112.567C702.232 112.722 702.3 112.882 702.354 113.048C702.503 113.404 702.671 113.867 702.894 114.436C703.377 115.736 704.047 117.533 704.884 119.776L712.026 139.677C715.002 148.114 718.555 158.117 722.498 169.225C724.358 174.796 726.553 180.599 728.599 186.704C729.694 189.85 730.167 193.164 729.994 196.476C729.836 198.199 729.324 199.874 728.487 201.407C727.594 202.934 726.4 204.282 724.972 205.376C722.098 207.384 718.909 208.94 715.523 209.987L705.944 213.28L687.809 219.492L657.101 229.958L636.362 236.936L630.782 238.716L629.294 239.179C629.135 239.246 628.965 239.288 628.791 239.303C628.791 239.303 628.94 239.303 629.256 239.09L630.707 238.538L636.287 236.526L656.915 229.264L687.567 218.584L705.665 212.318L715.244 209.008C718.534 208.004 721.631 206.495 724.414 204.54C725.743 203.524 726.854 202.273 727.688 200.855C728.475 199.438 728.95 197.881 729.083 196.281C729.254 193.089 728.8 189.896 727.743 186.864C725.735 180.812 723.614 174.956 721.698 169.385C717.83 158.26 714.258 148.221 711.431 139.783C708.604 131.346 706.223 124.564 704.586 119.794C703.805 117.462 703.21 115.647 702.726 114.329L702.28 112.905C702.224 112.797 702.18 112.684 702.15 112.567Z" fill="#263238"/>
<path d="M649.772 88.021C649.772 88.021 648.786 87.5582 646.964 86.8462C644.365 85.8908 641.617 85.3613 638.835 85.2798C634.712 85.1445 630.608 85.8861 626.82 87.4514C622.213 89.4004 618.274 92.553 615.455 96.5472C612.617 100.53 611.094 105.237 611.084 110.057C611.123 114.008 611.749 117.934 612.944 121.716C613.911 124.956 614.916 127.537 615.585 129.335C615.98 130.248 616.304 131.188 616.553 132.147C616.024 131.293 615.582 130.393 615.232 129.459C614.469 127.679 613.372 125.152 612.293 121.894C610.969 118.073 610.248 114.083 610.154 110.057C610.105 105.055 611.663 100.158 614.618 96.031C617.536 91.8909 621.636 88.6409 626.429 86.6682C630.335 85.0944 634.567 84.4001 638.798 84.639C641.641 84.7776 644.433 85.411 647.038 86.508C647.735 86.8155 648.406 87.1725 649.047 87.576C649.311 87.6872 649.556 87.8374 649.772 88.021Z" fill="#263238"/>
<path d="M650.628 157.672C650.925 157.5 651.236 157.351 651.558 157.227C652.489 156.825 653.453 156.498 654.441 156.248C656.009 155.806 657.626 155.543 659.258 155.465C661.479 155.351 663.701 155.672 665.787 156.409C670.549 158.011 674.919 162.656 677.077 168.869C678.112 172.202 678.112 175.752 677.077 179.086C675.93 182.704 673.873 185.998 671.088 188.68L671.199 188.199C673.673 194.696 676.37 201.745 679.16 209.097L679.328 209.542L678.863 209.702L674.603 211.055L665.303 214.027L664.838 214.17L664.689 213.725C662.141 206.355 659.351 199.485 657.249 192.738L657.659 193.041C654.022 192.752 650.555 191.446 647.689 189.285C645.096 187.374 642.969 184.944 641.458 182.165C640.094 179.701 639.416 176.943 639.486 174.155C639.573 171.306 640.316 168.511 641.663 165.969C643.011 163.427 644.929 161.202 647.28 159.452C648.248 158.7 649.334 158.1 650.498 157.672C649.447 158.269 648.429 158.916 647.447 159.613C644.864 161.704 642.886 164.394 641.7 167.427C640.682 169.713 640.206 172.187 640.306 174.671C640.406 177.154 641.079 179.586 642.276 181.791C643.762 184.465 645.838 186.797 648.359 188.627C651.093 190.68 654.399 191.918 657.863 192.187H658.179L658.272 192.454C660.318 199.075 663.127 205.999 665.712 213.404L665.099 213.119L674.399 210.147L678.639 208.776L678.342 209.381C675.571 202.03 672.892 194.963 670.437 188.466V188.199L670.66 187.986C673.364 185.415 675.38 182.258 676.538 178.783C677.524 175.594 677.524 172.2 676.538 169.011C674.51 163.03 670.325 158.491 665.787 156.889C663.778 156.148 661.633 155.803 659.481 155.875C657.875 155.91 656.277 156.119 654.72 156.498C651.948 157.156 650.646 157.761 650.628 157.672Z" fill="#263238"/>
<path d="M593.135 671.63L407.34 670.811C396.611 670.754 386.343 666.625 378.793 659.329C371.242 652.033 367.027 642.168 367.071 631.9L369.043 186.17C369.065 181.083 370.134 176.05 372.19 171.359C374.245 166.667 377.247 162.409 381.023 158.829C384.799 155.248 389.276 152.415 394.197 150.491C399.118 148.567 404.387 147.59 409.702 147.615L595.479 148.434C606.209 148.486 616.478 152.611 624.032 159.903C631.586 167.196 635.806 177.059 635.767 187.327L633.795 633.039C633.773 638.128 632.704 643.163 630.649 647.856C628.594 652.55 625.592 656.81 621.817 660.393C618.041 663.977 613.565 666.813 608.644 668.741C603.723 670.669 598.453 671.651 593.135 671.63Z" fill="#455A64"/>
<path d="M599.231 155.774H563.221C562.046 155.795 560.887 156.037 559.81 156.487C558.733 156.936 557.759 157.584 556.944 158.394C556.128 159.204 555.488 160.16 555.059 161.207C554.629 162.254 554.42 163.371 554.442 164.496V170.744C554.464 171.867 554.255 172.984 553.825 174.03C553.396 175.076 552.755 176.03 551.939 176.839C551.124 177.647 550.15 178.294 549.073 178.742C547.996 179.189 546.837 179.429 545.663 179.448L475.466 179.145C473.092 179.085 470.839 178.125 469.204 176.476C467.568 174.827 466.683 172.625 466.743 170.352V164.104C466.803 161.835 465.921 159.635 464.289 157.987C462.657 156.338 460.41 155.376 458.038 155.311H445.372L413.845 155.169C406.346 155.126 399.135 157.929 393.791 162.963C388.446 167.997 385.405 174.853 385.331 182.029L383.471 617.097C383.454 620.657 384.169 624.185 385.577 627.48C386.985 630.776 389.057 633.773 391.676 636.302C394.294 638.831 397.407 640.842 400.838 642.219C404.268 643.597 407.948 644.314 411.668 644.331L597.073 645.149C600.796 645.166 604.485 644.48 607.931 643.132C611.377 641.784 614.511 639.8 617.155 637.292C619.8 634.785 621.902 631.803 623.342 628.518C624.783 625.233 625.533 621.709 625.55 618.147L627.41 183.079C627.454 175.883 624.511 168.964 619.227 163.844C613.943 158.724 606.751 155.821 599.231 155.774Z" fill="white"/>
<path d="M570.257 595.09L432.394 594.52C430.962 594.52 429.809 593.025 429.827 591.209L429.976 556.695C429.976 554.915 431.148 553.384 432.58 553.384L570.443 553.989C571.237 554.121 571.947 554.54 572.425 555.16C572.903 555.781 573.113 556.554 573.01 557.318L572.88 591.797C572.88 593.63 571.69 595.107 570.257 595.09Z" fill="#6139D0"/>
<path d="M485.654 577.472V569.997H486.559V576.669H490.033V577.472H485.654ZM497.451 573.735C497.451 574.523 497.308 575.204 497.024 575.779C496.739 576.353 496.349 576.796 495.852 577.107C495.356 577.419 494.789 577.574 494.151 577.574C493.514 577.574 492.947 577.419 492.45 577.107C491.954 576.796 491.564 576.353 491.279 575.779C490.994 575.204 490.852 574.523 490.852 573.735C490.852 572.946 490.994 572.265 491.279 571.691C491.564 571.116 491.954 570.674 492.45 570.362C492.947 570.051 493.514 569.895 494.151 569.895C494.789 569.895 495.356 570.051 495.852 570.362C496.349 570.674 496.739 571.116 497.024 571.691C497.308 572.265 497.451 572.946 497.451 573.735ZM496.575 573.735C496.575 573.087 496.467 572.541 496.25 572.096C496.036 571.651 495.745 571.314 495.378 571.085C495.013 570.856 494.604 570.742 494.151 570.742C493.699 570.742 493.289 570.856 492.921 571.085C492.556 571.314 492.266 571.651 492.049 572.096C491.835 572.541 491.728 573.087 491.728 573.735C491.728 574.382 491.835 574.928 492.049 575.373C492.266 575.819 492.556 576.156 492.921 576.384C493.289 576.613 493.699 576.727 494.151 576.727C494.604 576.727 495.013 576.613 495.378 576.384C495.745 576.156 496.036 575.819 496.25 575.373C496.467 574.928 496.575 574.382 496.575 573.735ZM504.083 572.333C504.002 572.087 503.896 571.867 503.765 571.672C503.636 571.475 503.482 571.307 503.301 571.169C503.124 571.03 502.922 570.924 502.696 570.851C502.469 570.778 502.221 570.742 501.951 570.742C501.508 570.742 501.105 570.856 500.743 571.085C500.38 571.314 500.092 571.651 499.878 572.096C499.664 572.541 499.557 573.087 499.557 573.735C499.557 574.382 499.665 574.928 499.882 575.373C500.098 575.819 500.391 576.156 500.761 576.384C501.131 576.613 501.547 576.727 502.009 576.727C502.438 576.727 502.815 576.636 503.141 576.454C503.469 576.269 503.725 576.008 503.907 575.673C504.092 575.334 504.185 574.937 504.185 574.479L504.462 574.538H502.214V573.735H505.061V574.538C505.061 575.153 504.929 575.688 504.666 576.144C504.406 576.599 504.046 576.951 503.586 577.202C503.129 577.45 502.603 577.574 502.009 577.574C501.348 577.574 500.766 577.419 500.265 577.107C499.766 576.796 499.377 576.353 499.097 575.779C498.819 575.204 498.681 574.523 498.681 573.735C498.681 573.143 498.76 572.612 498.918 572.14C499.079 571.665 499.305 571.261 499.597 570.928C499.889 570.595 500.234 570.339 500.633 570.161C501.032 569.984 501.472 569.895 501.951 569.895C502.345 569.895 502.713 569.955 503.053 570.074C503.396 570.191 503.702 570.357 503.969 570.574C504.239 570.788 504.465 571.045 504.645 571.344C504.825 571.641 504.949 571.971 505.017 572.333H504.083ZM510.407 569.997V577.472H509.502V569.997H510.407ZM518.149 569.997V577.472H517.273L513.2 571.603H513.127V577.472H512.222V569.997H513.098L517.185 575.881H517.258V569.997H518.149Z" fill="#E8E8E3"/>
<path d="M459.893 291.653L412.054 291.446L412.014 299.847L459.853 300.055L459.893 291.653Z" fill="#6139D0"/>
<path opacity="0.1" d="M459.463 291.702L411.624 291.494L411.584 299.896L459.423 300.104L459.463 291.702Z" fill="black"/>
<path d="M600.129 343.237C600.505 343.201 600.874 343.117 601.227 342.988C601.741 342.796 602.189 342.468 602.518 342.043C602.847 341.618 603.044 341.113 603.087 340.585C603.087 337.755 603.087 333.625 603.087 328.321C603.087 325.669 603.087 322.696 603.087 319.421C603.087 318.62 603.087 317.783 603.087 316.947C603.208 316.135 603.023 315.308 602.566 314.615C602.31 314.282 601.977 314.011 601.593 313.823C601.208 313.635 600.784 313.534 600.352 313.529H597.451H570.574L415.003 312.977C414.605 312.971 414.211 313.057 413.855 313.227C413.499 313.397 413.191 313.648 412.957 313.956C412.508 314.653 412.337 315.481 412.474 316.288C412.474 318.068 412.474 319.848 412.474 321.628C412.474 325.188 412.474 328.748 412.474 332.308C412.474 334.088 412.474 335.868 412.474 337.648C412.397 338.477 412.397 339.311 412.474 340.14C412.572 340.496 412.753 340.825 413.005 341.103C413.256 341.38 413.571 341.599 413.925 341.742C414.291 341.882 414.684 341.948 415.078 341.938H424.545L465.856 342.152L535.792 342.561L582.943 342.917L595.758 343.059H599.088C599.85 343.059 600.222 343.059 600.222 343.059H599.088H595.758H582.943H535.792L465.856 342.846L424.545 342.686H415.078C414.557 342.706 414.037 342.621 413.553 342.436C413.063 342.236 412.627 341.932 412.279 341.546C411.931 341.161 411.68 340.704 411.544 340.211C411.436 339.744 411.399 339.265 411.432 338.787V337.47C411.432 335.69 411.432 333.91 411.432 332.13C411.432 328.57 411.432 325.01 411.432 321.45C411.432 319.67 411.432 317.89 411.432 316.11C411.397 315.636 411.397 315.16 411.432 314.686C411.502 314.163 411.714 313.666 412.046 313.244C412.367 312.815 412.792 312.466 413.284 312.227C413.776 311.988 414.321 311.867 414.873 311.874L570.444 312.693L597.321 312.871H600.222C600.733 312.871 601.237 312.989 601.69 313.215C602.144 313.442 602.533 313.769 602.826 314.17C603.351 314.944 603.562 315.874 603.421 316.787C603.421 317.623 603.421 318.46 603.421 319.261C603.421 322.5 603.421 325.473 603.421 328.161C603.421 333.501 603.291 337.595 603.254 340.443C603.209 340.99 603.001 341.514 602.655 341.952C602.309 342.391 601.839 342.725 601.301 342.917C600.949 343.126 600.543 343.237 600.129 343.237Z" fill="#E0E0E0"/>
<path d="M513.918 321.913H426.424V329.763H513.918V321.913Z" fill="#6139D0"/>
<path d="M459.566 368.298L411.728 368.09L411.688 376.492L459.527 376.7L459.566 368.298Z" fill="#6139D0"/>
<path opacity="0.1" d="M459.463 368.178L411.624 367.97L411.584 376.372L459.423 376.579L459.463 368.178Z" fill="black"/>
<path d="M598.92 419.884C599.296 419.84 599.668 419.775 600.036 419.689C600.556 419.53 601.034 419.267 601.438 418.917C601.842 418.567 602.163 418.138 602.38 417.659C602.672 416.941 602.787 416.167 602.714 415.399C602.714 414.544 602.714 413.619 602.714 412.586C602.714 410.522 602.714 408.172 602.714 405.466V394.163C602.803 393.345 602.614 392.521 602.175 391.814C601.716 391.088 600.995 390.55 600.148 390.301C599.221 390.143 598.278 390.095 597.339 390.158H570.574L415.543 389.607C414.709 389.608 413.904 389.9 413.278 390.427C412.652 390.954 412.247 391.681 412.139 392.472C412.139 394.163 412.139 396.032 412.139 397.812C412.139 401.372 412.139 404.932 412.139 408.492C412.139 410.272 412.139 412.052 412.139 413.832C412.07 414.664 412.107 415.501 412.25 416.324C412.483 417.046 412.961 417.673 413.608 418.104C414.295 418.522 415.102 418.721 415.915 418.674H418.5H423.875L465.037 418.87L534.731 419.279L581.715 419.635L594.493 419.778H597.823H598.939H597.823H594.493H581.715H534.731L465 419.706L423.838 419.564H415.747C414.741 419.621 413.743 419.365 412.901 418.834C412.055 418.273 411.437 417.449 411.153 416.502C410.986 415.598 410.936 414.677 411.004 413.761C411.004 411.981 411.004 410.201 411.004 408.421C411.004 404.861 411.004 401.301 411.004 397.741C411.004 395.961 411.004 394.181 411.004 392.401C411.14 391.383 411.659 390.448 412.463 389.77C413.268 389.091 414.303 388.717 415.375 388.717L570.406 389.535L597.172 389.731C598.168 389.673 599.169 389.738 600.148 389.927C601.114 390.229 601.929 390.863 602.435 391.707C602.917 392.491 603.125 393.401 603.031 394.306C603.031 395.142 603.031 395.961 603.031 396.78C603.031 400.002 603.031 402.957 603.031 405.68C603.031 408.403 603.031 410.7 603.031 412.8C603.031 413.815 603.031 414.758 603.031 415.63C603.098 416.426 602.964 417.226 602.64 417.962C602.399 418.453 602.049 418.889 601.616 419.239C601.183 419.589 600.675 419.846 600.129 419.991C599.723 420.023 599.313 419.987 598.92 419.884Z" fill="#E0E0E0"/>
<path d="M459.206 448.271L411.367 448.063L411.327 456.465L459.166 456.673L459.206 448.271Z" fill="#6139D0"/>
<path d="M598.548 499.824C598.924 499.782 599.297 499.716 599.664 499.628C600.181 499.471 600.658 499.21 601.062 498.863C601.466 498.517 601.788 498.092 602.008 497.617C602.299 496.898 602.414 496.124 602.342 495.356C602.342 494.484 602.342 493.576 602.342 492.526C602.342 490.479 602.342 488.112 602.342 485.406V474.103C602.431 473.285 602.242 472.461 601.803 471.753C601.333 471.041 600.615 470.511 599.776 470.258C598.85 470.094 597.907 470.04 596.967 470.098H570.202L415.171 469.546C414.337 469.548 413.532 469.84 412.906 470.367C412.28 470.894 411.875 471.621 411.767 472.412C411.767 474.192 411.767 475.972 411.767 477.752C411.767 481.312 411.767 484.872 411.767 488.432C411.767 490.212 411.767 491.992 411.767 493.772C411.698 494.598 411.735 495.429 411.878 496.246C412.101 496.972 412.581 497.602 413.236 498.026C413.919 498.453 414.729 498.653 415.543 498.596H423.634L464.795 498.809L534.49 499.219L581.473 499.575L594.251 499.717H597.581C598.325 499.717 598.697 499.717 598.697 499.717C598.697 499.717 598.325 499.717 597.581 499.717H594.251H581.473H534.49L464.795 499.521L423.634 499.361H415.543C414.536 499.426 413.535 499.17 412.697 498.631C411.851 498.07 411.233 497.247 410.948 496.3C410.782 495.395 410.732 494.475 410.8 493.558C410.8 491.778 410.8 489.998 410.8 488.218C410.8 484.658 410.8 481.098 410.8 477.538C410.8 475.758 410.8 473.978 410.8 472.109C410.931 471.093 411.446 470.158 412.248 469.479C413.049 468.801 414.082 468.426 415.152 468.425L570.183 469.244L596.948 469.439C597.945 469.381 598.946 469.447 599.924 469.635C600.891 469.937 601.706 470.572 602.212 471.415C602.693 472.199 602.902 473.109 602.807 474.014C602.807 474.851 602.807 475.687 602.807 476.488C602.807 479.71 602.807 482.665 602.807 485.388C602.807 488.112 602.807 490.408 602.807 492.508C602.807 493.523 602.807 494.466 602.807 495.338C602.879 496.135 602.745 496.935 602.417 497.67C602.175 498.161 601.826 498.597 601.393 498.947C600.959 499.297 600.452 499.554 599.906 499.699C599.47 499.842 599.005 499.885 598.548 499.824Z" fill="#E0E0E0"/>
<path d="M512.05 400.779L424.557 400.399L424.52 408.249L512.013 408.629L512.05 400.779Z" fill="#6139D0"/>
<path opacity="0.2" d="M512.609 400.492L425.116 400.112L425.079 407.962L512.572 408.342L512.609 400.492Z" fill="white"/>
<path d="M510.458 228.748C511.751 228.203 512.847 227.307 513.611 226.171C514.375 225.035 514.773 223.709 514.755 222.358C514.803 221.48 514.664 220.601 514.346 219.776C514.028 218.951 513.538 218.196 512.905 217.558C512.273 216.92 511.511 216.412 510.667 216.065C509.822 215.718 508.913 215.539 507.994 215.539C507.075 215.539 506.166 215.718 505.321 216.065C504.477 216.412 503.715 216.92 503.083 217.558C502.45 218.196 501.96 218.951 501.642 219.776C501.324 220.601 501.185 221.48 501.233 222.358C501.205 223.722 501.599 225.064 502.367 226.214C503.135 227.364 504.242 228.271 505.548 228.819C495.132 230.314 495.597 241.137 495.597 241.137L520.223 241.244C520.223 241.244 520.8 230.225 510.458 228.748Z" fill="#6139D0"/>
<path opacity="0.1" d="M510.174 228.118C511.413 227.578 512.464 226.69 513.196 225.563C513.928 224.436 514.31 223.121 514.293 221.781C514.339 220.91 514.206 220.039 513.901 219.221C513.596 218.402 513.126 217.654 512.52 217.021C511.913 216.389 511.183 215.885 510.374 215.541C509.565 215.196 508.693 215.019 507.812 215.019C506.931 215.019 506.059 215.196 505.25 215.541C504.44 215.885 503.71 216.389 503.104 217.021C502.498 217.654 502.028 218.402 501.723 219.221C501.418 220.039 501.285 220.91 501.331 221.781C501.304 223.134 501.682 224.465 502.418 225.606C503.154 226.746 504.215 227.645 505.467 228.189C495.482 229.672 495.928 240.405 495.928 240.405L519.535 240.511C519.535 240.511 520.088 229.584 510.174 228.118Z" fill="#6139D0"/>
<path d="M550.475 248.224L462.703 247.843L462.655 257.882L550.428 258.263L550.475 248.224Z" fill="#6139D0"/>
<path opacity="0.2" d="M550.009 247.542L462.236 247.161L462.189 257.2L549.961 257.581L550.009 247.542Z" fill="white"/>
<path d="M318.339 798.045V782.826L289.825 782.63L289.583 805.646L291.35 805.77C299.218 806.251 331.378 806.963 336.66 805.397C342.538 803.652 318.339 798.045 318.339 798.045Z" fill="white"/>
<path d="M337.33 803.973C337.33 804.222 326.653 804.435 313.503 804.435C300.353 804.435 289.676 804.222 289.676 803.973C289.676 803.723 300.353 803.51 313.503 803.51C326.653 803.51 337.33 803.723 337.33 803.973Z" fill="#263238"/>
<path d="M318.841 801.16C318.599 801.036 318.841 800.235 319.418 799.38C319.994 798.526 320.775 798.17 320.961 798.348C321.147 798.526 320.757 799.202 320.199 799.932C319.641 800.662 319.083 801.285 318.841 801.16Z" fill="#263238"/>
<path d="M320.664 802.157C320.404 802.157 320.534 801.16 321.092 800.217C321.65 799.273 322.394 798.704 322.598 798.846C322.803 798.989 322.468 799.79 321.947 800.626C321.427 801.463 320.906 802.246 320.664 802.157Z" fill="#263238"/>
<path opacity="0.2" d="M513.698 322.528H426.203V330.378H513.698V322.528Z" fill="#6138D1"/>
<path d="M298.27 803.901C298.158 803.901 297.73 803.581 297.116 802.905C296.367 802.035 295.532 801.236 294.624 800.519C293.731 799.836 292.666 799.388 291.536 799.22C290.662 799.113 290.104 799.22 290.048 799.113C289.993 799.006 290.532 798.633 291.555 798.561C292.905 798.534 294.222 798.963 295.275 799.772C296.261 800.541 297.093 801.476 297.73 802.531C298.158 803.314 298.381 803.83 298.27 803.901Z" fill="#263238"/>
<path d="M318.934 798.294C319.064 798.508 318.581 799.042 317.762 799.327C316.944 799.612 316.219 799.505 316.181 799.327C316.144 799.149 316.721 798.775 317.428 798.526C318.134 798.277 318.785 798.081 318.934 798.294Z" fill="#263238"/>
<path d="M318.488 796.817C318.488 797.084 317.744 797.298 316.777 797.315C315.809 797.333 315.047 797.12 315.065 796.87C315.084 796.621 315.847 796.39 316.777 796.372C317.707 796.354 318.451 796.568 318.488 796.817Z" fill="#263238"/>
<path d="M388.554 798.045V782.826L360.04 782.63L359.798 805.415L361.565 805.539C369.433 806.02 401.611 806.963 406.875 805.397C412.753 803.652 388.554 798.045 388.554 798.045Z" fill="white"/>
<path d="M407.545 804.008C407.545 804.257 396.887 804.471 383.718 804.471C370.549 804.471 359.91 804.257 359.91 804.008C359.91 803.759 370.568 803.545 383.718 803.545C396.868 803.545 407.545 803.759 407.545 804.008Z" fill="#263238"/>
<path d="M389.056 801.16C388.833 801.036 389.056 800.235 389.633 799.38C390.21 798.526 390.991 798.17 391.177 798.348C391.363 798.526 390.972 799.202 390.414 799.932C389.856 800.662 389.298 801.285 389.056 801.16Z" fill="#263238"/>
<path d="M390.879 802.157C390.637 802.157 390.749 801.16 391.325 800.217C391.902 799.273 392.627 798.704 392.832 798.846C393.037 798.989 392.683 799.79 392.162 800.626C391.642 801.463 391.139 802.246 390.879 802.157Z" fill="#263238"/>
<path d="M368.485 803.901C368.373 803.901 367.964 803.581 367.331 802.905C366.582 802.035 365.747 801.236 364.839 800.519C363.946 799.836 362.881 799.388 361.751 799.22C360.896 799.113 360.319 799.22 360.263 799.113C360.208 799.006 360.747 798.633 361.77 798.561C363.12 798.534 364.437 798.963 365.49 799.772C366.482 800.536 367.314 801.472 367.945 802.531C368.373 803.314 368.596 803.83 368.485 803.901Z" fill="#263238"/>
<path d="M389.149 798.294C389.279 798.508 388.796 799.042 387.977 799.327C387.159 799.612 386.434 799.505 386.396 799.327C386.359 799.149 386.936 798.775 387.643 798.526C388.349 798.277 389 798.081 389.149 798.294Z" fill="#263238"/>
<path d="M388.74 796.817C388.74 797.084 387.996 797.298 387.029 797.315C386.062 797.333 385.318 797.12 385.336 796.87C385.355 796.621 386.099 796.39 387.029 796.372C387.959 796.354 388.74 796.568 388.74 796.817Z" fill="#263238"/>
<path d="M493.607 346.103C492.863 345.373 491.021 345.729 491.021 345.729C491.206 344.705 491.206 343.657 491.021 342.632C490.687 341.635 488.343 341.831 488.343 341.831C488.235 340.992 488.235 340.143 488.343 339.304C488.362 339.118 488.32 338.931 488.223 338.768C488.127 338.606 487.98 338.476 487.804 338.396C486.695 337.963 485.504 337.757 484.307 337.791C482.875 336.812 488.678 329.033 490.835 326.541C492.993 324.049 492.602 322.109 490.687 322.109C489.366 322.109 482.596 329.585 480.512 332.095C478.429 334.604 472.905 341.582 472.719 336.011C472.533 330.439 470.189 326.238 468.72 325.526C467.251 324.814 465.688 326.488 466.488 328.036C467.191 329.796 467.629 331.641 467.79 333.519C467.992 335.014 467.923 336.531 467.585 338.004C466.969 340.745 466.129 343.435 465.074 346.05H464.926C464.926 346.05 424.34 383.305 421.402 385.957C418.779 388.343 366.029 383.127 355.446 382.059C351.85 381.556 348.218 381.318 344.584 381.347C339.989 381.543 339.171 382.166 334.595 382.219C323.04 382.342 311.511 383.312 300.111 385.121C294.949 385.961 290.127 388.141 286.171 391.425C282.215 394.708 279.278 398.968 277.679 403.74C267.022 435.602 242.879 511.02 238.619 553.384C235.401 558.97 232.495 564.716 229.915 570.597C226.92 578.393 227.645 578.66 228.65 578.838C231.365 579.319 234.453 565.328 235.606 568.71C236.759 572.092 229.747 585.389 232.593 585.78C236.313 586.279 239.27 571.54 239.624 570.365C239.977 569.191 241.819 569.564 241.484 570.668C240.944 572.234 235.718 588.842 239.363 589.376C241.372 589.661 241.595 586.154 241.595 586.154C241.595 586.154 245.315 570.259 247.008 570.579C248.701 570.899 246.896 580.28 246.041 583.413C245.185 586.546 246.376 588.13 248.124 587.365C249.314 586.83 252.16 577.307 252.941 574.21C253.723 571.113 255.676 562.533 258.298 567.5C260.921 572.466 264.901 575.349 266.538 575.421C266.907 575.38 267.254 575.235 267.536 575.003C267.818 574.772 268.021 574.465 268.119 574.122C268.217 573.78 268.206 573.417 268.086 573.08C267.967 572.744 267.745 572.449 267.449 572.234C266.042 570.919 264.833 569.421 263.86 567.784C262.992 566.51 262.363 565.1 262 563.619C261.25 560.667 260.814 557.649 260.698 554.612L260.4 552.832C264.566 533.092 276.563 475.153 293.88 438.147L300.985 452.138L304.073 462.497L285.138 507.229L365.899 506.214L353.846 461.821L368.485 415.541C384.313 415.879 424.954 416.449 431.725 413.512C440.243 409.952 484.307 356.694 484.307 356.694C487.179 354.558 489.93 352.277 492.547 349.859C492.547 349.859 495.225 347.705 493.607 346.103Z" fill="#FFBE9D"/>
<path d="M281.585 474.174C283.929 466.52 295.963 428.677 295.963 428.677C295.963 428.677 301.878 459.525 300.316 463.245C298.878 466.43 297.18 469.501 295.238 472.43C281.585 492.312 283.371 502.263 283.371 502.263L365.862 499.86C366.048 488.824 359.222 463.156 357.808 459.062C356.395 454.968 361.1 441.565 361.1 441.565C361.1 441.565 370.4 432.504 370.066 427.841C369.889 423.652 369.348 419.484 368.447 415.381L418.667 417.161L417.086 384.587L344.956 377.68C342.445 384.462 319.734 381.134 319.734 381.134C295.219 381.917 293.694 386.224 283.501 393.807C273.308 401.39 256.438 466.467 256.438 466.467L281.585 474.174Z" fill="#5B36C2"/>
<path d="M330.355 466.467C328.925 466.711 327.469 466.783 326.021 466.681C323.324 466.681 319.622 466.502 315.549 466.111C311.476 465.719 307.793 465.167 305.17 464.669C303.724 464.491 302.306 464.144 300.948 463.637C302.402 463.637 303.853 463.768 305.282 464.028C307.923 464.349 311.587 464.794 315.642 465.185C319.697 465.577 323.38 465.844 326.039 466.022C327.489 466.039 328.934 466.188 330.355 466.467Z" fill="#263238"/>
<path d="M336.009 459.756C334.579 460.427 333.067 460.923 331.508 461.234C324.087 463.1 316.431 463.968 308.76 463.815C307.173 463.864 305.585 463.721 304.036 463.388C305.602 463.198 307.181 463.121 308.76 463.156C311.68 463.067 315.698 462.871 320.125 462.373C324.551 461.875 328.495 461.163 331.285 460.593C332.834 460.197 334.414 459.917 336.009 459.756Z" fill="#263238"/>
<path d="M363.76 429.817C363.723 431.174 363.529 432.523 363.184 433.839C362.7 436.314 361.956 439.696 361.007 443.398C360.059 447.1 359.147 450.518 358.329 452.832C358 454.157 357.513 455.441 356.878 456.659C356.982 455.306 357.244 453.969 357.659 452.672C358.366 449.895 359.166 446.691 360.059 443.184C360.952 439.678 361.807 436.474 362.514 433.697C362.766 432.361 363.184 431.058 363.76 429.817Z" fill="#263238"/>
<path d="M282.46 469.635C278.157 468.999 273.91 468.053 269.756 466.805C265.511 465.855 261.346 464.606 257.294 463.067C261.595 463.713 265.841 464.659 269.998 465.897C274.243 466.844 278.409 468.093 282.46 469.635Z" fill="#263238"/>
<path d="M369.34 414.989C368.639 415.105 367.921 415.105 367.22 414.989C365.277 414.799 363.369 414.362 361.547 413.69C358.504 412.596 355.734 410.904 353.415 408.725C351.096 406.545 349.279 403.926 348.08 401.034C346.756 397.853 346.19 394.429 346.425 391.013C346.508 388.194 347.389 385.451 348.973 383.074C350.088 381.473 351.752 380.295 353.679 379.745C354.194 379.609 354.726 379.543 355.26 379.549C355.632 379.549 355.818 379.549 355.818 379.549C355.818 379.549 355.037 379.549 353.791 380.03C352.023 380.655 350.524 381.826 349.531 383.359C347.002 387.168 346.295 394.128 348.992 400.625C350.247 403.688 352.212 406.439 354.739 408.67C356.81 410.496 359.195 411.965 361.789 413.013C364.223 413.934 366.755 414.597 369.34 414.989Z" fill="#263238"/>
<path d="M412.697 416.52C412.231 411.062 412.082 405.583 412.25 400.108C412.105 394.639 412.279 389.166 412.771 383.715C413.237 389.167 413.386 394.64 413.218 400.108C413.374 405.584 413.2 411.064 412.697 416.52Z" fill="#263238"/>
<path d="M344.472 379.674C344.677 375.705 345.104 371.219 345.104 371.219C345.104 371.219 355.372 370.133 355.985 359.987C356.599 349.841 355.985 326.434 355.985 326.434L337.385 317.321L316.739 332.86L319.92 383.59L338.855 384.747C340.302 384.785 341.706 384.273 342.759 383.322C343.812 382.371 344.428 381.059 344.472 379.674Z" fill="#FFBE9D"/>
<path d="M346.313 351.959C346.313 351.959 346.313 352.155 346.146 352.387C346.008 352.554 345.829 352.687 345.624 352.774C345.42 352.861 345.197 352.899 344.974 352.885C343.784 352.885 342.631 351.568 342.221 350.037C342.027 349.295 342.027 348.518 342.221 347.776C342.26 347.452 342.382 347.143 342.577 346.875C342.771 346.608 343.033 346.392 343.337 346.246C343.588 346.147 343.868 346.147 344.119 346.246C344.304 346.334 344.454 346.477 344.546 346.655C344.677 346.958 344.546 347.153 344.546 347.136C344.546 347.118 344.546 346.958 344.36 346.78C344.263 346.652 344.12 346.563 343.959 346.531C343.798 346.498 343.629 346.523 343.486 346.602C343.258 346.734 343.069 346.919 342.935 347.14C342.802 347.361 342.729 347.61 342.724 347.865C342.567 348.527 342.567 349.215 342.724 349.877C343.096 351.265 344.1 352.387 344.993 352.493C345.168 352.516 345.345 352.504 345.515 352.458C345.684 352.412 345.842 352.333 345.979 352.226C346.202 352.084 346.276 351.942 346.313 351.959Z" fill="#EB996E"/>
<path d="M362.365 320.952C360.933 316.288 355.744 313.974 351.019 312.693C343.821 310.735 336.046 309.88 329.015 312.354C321.985 314.829 313.54 319.172 313.54 326.594C309.392 326.274 307.012 329.745 305.375 334.053C304.328 336.677 303.701 339.437 303.515 342.241C302.994 351.959 300.148 365.381 293.564 372.501C289.844 376.47 284.692 379.211 282.571 384.16C280.711 388.449 281.678 393.54 279.949 397.883C278.405 401.71 275.001 404.434 272.509 407.762C269.969 411.539 268.475 415.87 268.166 420.351C267.857 424.832 268.743 429.314 270.742 433.377C272.754 437.335 275.588 440.86 279.071 443.737C282.553 446.613 286.611 448.781 290.997 450.109C299.685 452.638 308.95 452.725 317.688 450.358C324.246 448.857 330.363 445.954 335.581 441.867C340.92 437.695 344.587 431.884 345.96 425.42C347.281 418.158 345.16 410.771 343.579 403.544C338.632 380.706 340.045 379.514 346.295 358.314C346.444 357.94 346.518 357.549 346.63 357.175C346.741 356.801 346.797 356.623 346.871 356.338C347.049 355.5 347.142 354.648 347.15 353.793C346.238 354.118 345.247 354.186 344.295 353.991C343.342 353.795 342.468 353.344 341.775 352.689C341.08 351.991 340.596 351.126 340.373 350.186C340.15 349.246 340.198 348.266 340.51 347.349C340.949 346.347 341.603 345.444 342.43 344.699C343.256 343.954 344.237 343.383 345.309 343.024C347.374 342.205 349.587 341.778 351.614 340.87C355.911 338.912 358.887 334.854 360.914 330.599C362.581 327.651 363.096 324.231 362.365 320.952Z" fill="#263238"/>
<path d="M347.057 352.44C347.45 352.996 347.775 353.593 348.025 354.22C348.583 355.341 349.327 356.926 350.145 358.759L350.294 359.097H349.903L348.043 359.257C346.76 359.257 345.681 359.489 344.416 359.471C344.306 359.447 344.204 359.397 344.119 359.326C344.035 359.254 343.971 359.163 343.933 359.062C343.877 358.9 343.877 358.725 343.933 358.563C343.976 358.323 344.032 358.086 344.1 357.851L344.435 356.587C344.603 355.744 344.865 354.921 345.216 354.131C345.181 354.99 345.05 355.844 344.825 356.676L344.565 357.94C344.472 358.367 344.305 359.026 344.565 358.973C345.495 358.973 346.816 358.777 348.043 358.706L349.903 358.545L349.661 358.937C348.862 357.157 348.192 355.484 347.801 354.327C347.459 353.736 347.208 353.1 347.057 352.44Z" fill="#5B36C2"/>
<path d="M283.371 502.263L365.862 499.86L401.76 633.965L395.157 787.792H351.54L356.878 637.24L324.979 543.879L329.89 793.755L285.808 794.378L281.176 559.507C280.972 552.975 278.74 538.254 279.577 531.775L283.371 502.263Z" fill="#263238"/>
<path d="M335.953 545.784C334.603 545.865 333.247 545.787 331.917 545.552C329.425 545.267 326.021 544.769 322.282 544.057C318.544 543.345 315.196 542.526 312.778 541.868C311.485 541.596 310.235 541.165 309.058 540.586C309.058 540.319 315.121 541.707 322.561 543.149C330.001 544.591 335.99 545.517 335.953 545.784Z" fill="#455A64"/>
<path d="M394.711 779.355C394.711 779.604 384.834 779.818 372.651 779.818C360.468 779.818 350.573 779.604 350.573 779.355C350.573 779.106 360.449 778.892 372.651 778.892C384.853 778.892 394.711 779.088 394.711 779.355Z" fill="#455A64"/>
<path d="M329.499 787.258C329.499 787.525 319.901 787.721 308.072 787.721C296.242 787.721 286.663 787.525 286.663 787.258C286.663 786.991 296.261 786.796 308.072 786.796C319.883 786.796 329.499 787.009 329.499 787.258Z" fill="#455A64"/>
<path d="M323.807 786.618C323.547 786.618 322.394 732.025 321.222 664.688C320.05 597.35 319.362 542.722 319.604 542.722C319.846 542.722 321.036 597.297 322.189 664.67C323.342 732.043 324.086 786.618 323.807 786.618Z" fill="#455A64"/>
<path d="M388.852 779.355C388.831 779.112 388.831 778.868 388.852 778.625V776.489C388.852 774.567 389 771.808 389.112 768.301C389.372 761.181 389.744 750.84 390.209 738.166C391.214 712.676 392.627 677.539 394.171 638.753C394.171 638.379 394.171 638.023 394.171 637.703V637.827C384.406 600.447 375.571 566.521 369.154 541.974L361.714 512.943C360.859 509.543 360.208 506.891 359.743 505.039C359.519 504.167 359.371 503.491 359.24 502.975C359.168 502.743 359.124 502.504 359.11 502.263C359.207 502.487 359.282 502.719 359.333 502.957C359.482 503.455 359.668 504.132 359.929 504.986C360.431 506.766 361.156 509.472 362.086 512.854C363.946 519.724 366.569 529.621 369.842 541.814C376.315 566.343 385.243 600.18 395.138 637.614V637.738C395.138 638.059 395.138 638.433 395.138 638.789C393.483 677.575 391.976 712.694 390.879 738.184C390.302 750.875 389.819 761.146 389.484 768.301C389.298 771.861 389.149 774.567 389.056 776.489C389.056 777.397 388.945 778.109 388.926 778.625C388.929 778.871 388.904 779.115 388.852 779.355Z" fill="#455A64"/>
<path d="M374.623 634.57C371.49 635.556 368.262 636.242 364.988 636.617C360.97 637.276 357.548 637.738 356.004 637.81V637.454C356.506 637.596 356.767 637.685 356.767 637.756C356.767 637.827 356.45 637.756 355.93 637.756H354.814L355.93 637.436C357.38 637.026 360.803 636.35 364.82 635.656C368.043 634.987 371.326 634.623 374.623 634.57Z" fill="#455A64"/>
<path d="M373.86 639.679C370.959 639.806 368.052 639.681 365.174 639.305C362.268 639.248 359.374 638.944 356.525 638.397C362.338 637.943 368.189 638.376 373.86 639.679Z" fill="#455A64"/>
<path opacity="0.2" d="M283.018 505.093C283.995 506.293 285.225 507.283 286.629 507.998C288.033 508.713 289.578 509.136 291.164 509.24C294.487 509.617 297.847 509.557 301.153 509.062C322.45 506.802 345.011 504.719 365.862 499.86C338.873 501.301 310.36 500.821 283.371 502.263L283.092 504.47" fill="black"/>
<g opacity="0.2">
<path d="M310.825 541.494L326.039 597.991L324.979 543.879L310.825 541.494Z" fill="black"/>
</g>
<ellipse cx="441.278" cy="484.69" rx="3.82908" ry="3.66862" fill="#5B36C2"/>
<ellipse cx="441.278" cy="484.69" rx="3.82908" ry="3.66862" fill="#5B36C2"/>
<ellipse cx="430.032" cy="484.69" rx="3.82908" ry="3.66862" fill="#5B36C2"/>
<ellipse cx="441.278" cy="484.69" rx="3.82908" ry="3.66862" fill="#5B36C2"/>
<ellipse cx="486.26" cy="484.69" rx="3.82908" ry="3.66862" fill="#5B36C2"/>
<ellipse cx="508.75" cy="484.69" rx="3.82908" ry="3.66862" fill="#5B36C2"/>
<ellipse cx="497.505" cy="484.69" rx="3.82908" ry="3.66862" fill="#5B36C2"/>
<ellipse cx="475.014" cy="484.69" rx="3.82908" ry="3.66862" fill="#5B36C2"/>
<ellipse cx="463.769" cy="484.69" rx="3.82908" ry="3.66862" fill="#5B36C2"/>
<ellipse cx="452.523" cy="484.69" rx="3.82908" ry="3.66862" fill="#5B36C2"/>
</svg>
